<mxfile host="65bd71144e">
    <diagram id="gTYZ_A3CIfkaJaaYVRuv" name="Page-1">
        <mxGraphModel dx="1223" dy="629" grid="1" gridSize="10" guides="1" tooltips="1" connect="1" arrows="1" fold="1" page="1" pageScale="1" pageWidth="850" pageHeight="1100" background="#ffffff" math="0" shadow="0">
            <root>
                <mxCell id="0"/>
                <mxCell id="1" parent="0"/>
                <mxCell id="2" value="&lt;span style=&quot;font-weight: normal;&quot;&gt;&amp;lt;&amp;lt;ProcessDefinition&amp;gt;&amp;gt;&lt;/span&gt;&lt;br&gt;FridgeDissasembly" style="rounded=0;whiteSpace=wrap;html=1;fontStyle=1;spacingBottom=0;verticalAlign=top;" vertex="1" parent="1">
                    <mxGeometry x="140" y="320" width="160" height="90" as="geometry"/>
                </mxCell>
                <mxCell id="19" style="edgeStyle=orthogonalEdgeStyle;shape=connector;rounded=0;html=1;exitX=0.5;exitY=1;exitDx=0;exitDy=0;entryX=0.5;entryY=0;entryDx=0;entryDy=0;labelBackgroundColor=default;strokeColor=default;strokeWidth=1;fontFamily=Helvetica;fontSize=12;fontColor=default;startArrow=diamondThin;startFill=1;endArrow=open;startSize=14;endSize=12;" edge="1" parent="1" source="3" target="11">
                    <mxGeometry relative="1" as="geometry"/>
                </mxCell>
                <mxCell id="22" style="edgeStyle=orthogonalEdgeStyle;shape=connector;rounded=0;html=1;exitX=0.5;exitY=1;exitDx=0;exitDy=0;entryX=0.5;entryY=0;entryDx=0;entryDy=0;labelBackgroundColor=default;strokeColor=default;strokeWidth=1;fontFamily=Helvetica;fontSize=12;fontColor=default;startArrow=diamondThin;startFill=1;endArrow=open;startSize=14;endSize=12;" edge="1" parent="1" source="3" target="20">
                    <mxGeometry relative="1" as="geometry"/>
                </mxCell>
                <mxCell id="49" style="edgeStyle=orthogonalEdgeStyle;shape=connector;rounded=0;html=1;exitX=1;exitY=0.5;exitDx=0;exitDy=0;entryX=0;entryY=0.5;entryDx=0;entryDy=0;labelBackgroundColor=default;strokeColor=default;strokeWidth=1;fontFamily=Helvetica;fontSize=12;fontColor=default;startArrow=none;startFill=0;endArrow=open;startSize=14;endSize=12;" edge="1" parent="1" source="3" target="48">
                    <mxGeometry relative="1" as="geometry"/>
                </mxCell>
                <mxCell id="50" style="edgeStyle=orthogonalEdgeStyle;shape=connector;rounded=0;html=1;exitX=1;exitY=0.5;exitDx=0;exitDy=0;entryX=0;entryY=0.5;entryDx=0;entryDy=0;labelBackgroundColor=default;strokeColor=default;strokeWidth=1;fontFamily=Helvetica;fontSize=12;fontColor=default;startArrow=none;startFill=0;endArrow=open;startSize=14;endSize=12;" edge="1" parent="1" source="3" target="47">
                    <mxGeometry relative="1" as="geometry"/>
                </mxCell>
                <mxCell id="51" style="edgeStyle=orthogonalEdgeStyle;shape=connector;rounded=0;html=1;entryX=0;entryY=0.5;entryDx=0;entryDy=0;labelBackgroundColor=default;strokeColor=default;strokeWidth=1;fontFamily=Helvetica;fontSize=12;fontColor=default;startArrow=none;startFill=0;endArrow=open;startSize=14;endSize=12;" edge="1" parent="1" source="3" target="46">
                    <mxGeometry relative="1" as="geometry"/>
                </mxCell>
                <mxCell id="52" style="edgeStyle=orthogonalEdgeStyle;shape=connector;rounded=0;html=1;entryX=0;entryY=0.5;entryDx=0;entryDy=0;labelBackgroundColor=default;strokeColor=default;strokeWidth=1;fontFamily=Helvetica;fontSize=12;fontColor=default;startArrow=none;startFill=0;endArrow=open;startSize=14;endSize=12;" edge="1" parent="1" source="3" target="45">
                    <mxGeometry relative="1" as="geometry"/>
                </mxCell>
                <mxCell id="53" style="edgeStyle=orthogonalEdgeStyle;shape=connector;rounded=0;html=1;entryX=0;entryY=0.5;entryDx=0;entryDy=0;labelBackgroundColor=default;strokeColor=default;strokeWidth=1;fontFamily=Helvetica;fontSize=12;fontColor=default;startArrow=none;startFill=0;endArrow=open;startSize=14;endSize=12;" edge="1" parent="1" source="3" target="44">
                    <mxGeometry relative="1" as="geometry"/>
                </mxCell>
                <mxCell id="54" style="edgeStyle=orthogonalEdgeStyle;shape=connector;rounded=0;html=1;entryX=0;entryY=0.5;entryDx=0;entryDy=0;labelBackgroundColor=default;strokeColor=default;strokeWidth=1;fontFamily=Helvetica;fontSize=12;fontColor=default;startArrow=none;startFill=0;endArrow=open;startSize=14;endSize=12;" edge="1" parent="1" source="3" target="43">
                    <mxGeometry relative="1" as="geometry"/>
                </mxCell>
                <mxCell id="3" value="&lt;span style=&quot;font-weight: normal;&quot;&gt;&amp;lt;&amp;lt;TaskDefinition&amp;gt;&amp;gt;&lt;/span&gt;&lt;br&gt;TrayAndGasketRemoval" style="rounded=0;whiteSpace=wrap;html=1;fontStyle=1;spacingBottom=0;verticalAlign=top;" vertex="1" parent="1">
                    <mxGeometry x="140" y="470" width="160" height="90" as="geometry"/>
                </mxCell>
                <mxCell id="6" value="1" style="endArrow=open;html=1;endSize=12;startArrow=diamondThin;startSize=14;startFill=1;edgeStyle=orthogonalEdgeStyle;align=left;verticalAlign=bottom;exitX=0.5;exitY=1;exitDx=0;exitDy=0;entryX=0.5;entryY=0;entryDx=0;entryDy=0;" edge="1" parent="1" source="2" target="3">
                    <mxGeometry x="-0.3333" y="10" relative="1" as="geometry">
                        <mxPoint x="340" y="460" as="sourcePoint"/>
                        <mxPoint x="500" y="460" as="targetPoint"/>
                        <mxPoint as="offset"/>
                    </mxGeometry>
                </mxCell>
                <mxCell id="8" value="*" style="edgeLabel;html=1;align=center;verticalAlign=middle;resizable=0;points=[];fontSize=12;" vertex="1" connectable="0" parent="6">
                    <mxGeometry x="0.1667" y="2" relative="1" as="geometry">
                        <mxPoint x="11" y="15" as="offset"/>
                    </mxGeometry>
                </mxCell>
                <mxCell id="29" style="edgeStyle=orthogonalEdgeStyle;shape=connector;rounded=0;html=1;exitX=0.5;exitY=1;exitDx=0;exitDy=0;labelBackgroundColor=default;strokeColor=default;strokeWidth=1;fontFamily=Helvetica;fontSize=12;fontColor=default;startArrow=diamondThin;startFill=1;endArrow=open;startSize=14;endSize=12;" edge="1" parent="1" source="9" target="27">
                    <mxGeometry relative="1" as="geometry"/>
                </mxCell>
                <mxCell id="30" style="edgeStyle=orthogonalEdgeStyle;shape=connector;rounded=0;html=1;exitX=0.5;exitY=1;exitDx=0;exitDy=0;entryX=0.5;entryY=0;entryDx=0;entryDy=0;labelBackgroundColor=default;strokeColor=default;strokeWidth=1;fontFamily=Helvetica;fontSize=12;fontColor=default;startArrow=diamondThin;startFill=1;endArrow=open;startSize=14;endSize=12;" edge="1" parent="1" source="9" target="28">
                    <mxGeometry relative="1" as="geometry"/>
                </mxCell>
                <mxCell id="9" value="&lt;span style=&quot;font-weight: normal;&quot;&gt;&amp;lt;&amp;lt;StepDefinition&amp;gt;&amp;gt;&lt;/span&gt;&lt;br&gt;TrayRemoval" style="rounded=0;whiteSpace=wrap;html=1;fontStyle=1;spacingBottom=0;verticalAlign=top;" vertex="1" parent="1">
                    <mxGeometry x="225" y="750" width="160" height="90" as="geometry"/>
                </mxCell>
                <mxCell id="10" value="&lt;span style=&quot;font-weight: normal;&quot;&gt;&amp;lt;&amp;lt;StepDefinition&amp;gt;&amp;gt;&lt;/span&gt;&lt;br&gt;RestrainFridge" style="rounded=0;whiteSpace=wrap;html=1;fontStyle=1;spacingBottom=0;verticalAlign=top;" vertex="1" parent="1">
                    <mxGeometry x="-50" y="610" width="160" height="90" as="geometry"/>
                </mxCell>
                <mxCell id="11" value="&lt;span style=&quot;font-weight: normal;&quot;&gt;&amp;lt;&amp;lt;StepDefinition&amp;gt;&amp;gt;&lt;/span&gt;&lt;br&gt;ReleaseFridge" style="rounded=0;whiteSpace=wrap;html=1;fontStyle=1;spacingBottom=0;verticalAlign=top;" vertex="1" parent="1">
                    <mxGeometry x="330" y="610" width="160" height="90" as="geometry"/>
                </mxCell>
                <mxCell id="12" value="&lt;span style=&quot;font-weight: normal;&quot;&gt;&amp;lt;&amp;lt;StepDefinition&amp;gt;&amp;gt;&lt;/span&gt;&lt;br&gt;OpenFridgeDoor" style="rounded=0;whiteSpace=wrap;html=1;fontStyle=1;spacingBottom=0;verticalAlign=top;" vertex="1" parent="1">
                    <mxGeometry x="-115" y="750" width="160" height="90" as="geometry"/>
                </mxCell>
                <mxCell id="13" value="&lt;span style=&quot;font-weight: normal;&quot;&gt;&amp;lt;&amp;lt;StepDefinition&amp;gt;&amp;gt;&lt;br&gt;&lt;/span&gt;CloseFridgeDoor" style="rounded=0;whiteSpace=wrap;html=1;fontStyle=1;spacingBottom=0;verticalAlign=top;" vertex="1" parent="1">
                    <mxGeometry x="395" y="750" width="160" height="90" as="geometry"/>
                </mxCell>
                <mxCell id="15" value="1" style="endArrow=open;html=1;endSize=12;startArrow=diamondThin;startSize=14;startFill=1;edgeStyle=orthogonalEdgeStyle;align=left;verticalAlign=bottom;fontSize=12;exitX=0.5;exitY=1;exitDx=0;exitDy=0;entryX=0.5;entryY=0;entryDx=0;entryDy=0;strokeWidth=1;rounded=0;" edge="1" parent="1" source="3" target="10">
                    <mxGeometry x="-0.8333" y="10" relative="1" as="geometry">
                        <mxPoint x="280" y="540" as="sourcePoint"/>
                        <mxPoint x="440" y="540" as="targetPoint"/>
                        <mxPoint as="offset"/>
                    </mxGeometry>
                </mxCell>
                <mxCell id="23" style="edgeStyle=orthogonalEdgeStyle;shape=connector;rounded=0;html=1;exitX=0.5;exitY=1;exitDx=0;exitDy=0;entryX=0.5;entryY=0;entryDx=0;entryDy=0;labelBackgroundColor=default;strokeColor=default;strokeWidth=1;fontFamily=Helvetica;fontSize=12;fontColor=default;startArrow=diamondThin;startFill=1;endArrow=open;startSize=14;endSize=12;" edge="1" parent="1" source="20" target="12">
                    <mxGeometry relative="1" as="geometry"/>
                </mxCell>
                <mxCell id="24" style="edgeStyle=orthogonalEdgeStyle;shape=connector;rounded=0;html=1;exitX=0.5;exitY=1;exitDx=0;exitDy=0;labelBackgroundColor=default;strokeColor=default;strokeWidth=1;fontFamily=Helvetica;fontSize=12;fontColor=default;startArrow=diamondThin;startFill=1;endArrow=open;startSize=14;endSize=12;" edge="1" parent="1" source="20" target="9">
                    <mxGeometry relative="1" as="geometry"/>
                </mxCell>
                <mxCell id="25" style="edgeStyle=orthogonalEdgeStyle;shape=connector;rounded=0;html=1;exitX=0.5;exitY=1;exitDx=0;exitDy=0;entryX=0.5;entryY=0;entryDx=0;entryDy=0;labelBackgroundColor=default;strokeColor=default;strokeWidth=1;fontFamily=Helvetica;fontSize=12;fontColor=default;startArrow=diamondThin;startFill=1;endArrow=open;startSize=14;endSize=12;" edge="1" parent="1" source="20" target="13">
                    <mxGeometry relative="1" as="geometry"/>
                </mxCell>
                <mxCell id="31" style="edgeStyle=orthogonalEdgeStyle;shape=connector;rounded=0;html=1;exitX=0.5;exitY=1;exitDx=0;exitDy=0;entryX=0.5;entryY=0;entryDx=0;entryDy=0;labelBackgroundColor=default;strokeColor=default;strokeWidth=1;fontFamily=Helvetica;fontSize=12;fontColor=default;startArrow=diamondThin;startFill=1;endArrow=open;startSize=14;endSize=12;" edge="1" parent="1" source="20" target="26">
                    <mxGeometry relative="1" as="geometry"/>
                </mxCell>
                <mxCell id="20" value="&lt;span style=&quot;font-weight: normal;&quot;&gt;&amp;lt;&amp;lt;StepDefinition&amp;gt;&amp;gt;&lt;/span&gt;&lt;br&gt;TrayAndGasket&lt;br&gt;CompartmentRemoval" style="rounded=0;whiteSpace=wrap;html=1;fontStyle=1;spacingBottom=0;verticalAlign=top;" vertex="1" parent="1">
                    <mxGeometry x="140" y="610" width="160" height="90" as="geometry"/>
                </mxCell>
                <mxCell id="26" value="&lt;span style=&quot;font-weight: normal;&quot;&gt;&amp;lt;&amp;lt;StepDefinition&amp;gt;&amp;gt;&lt;/span&gt;&lt;br&gt;RemoveGasket" style="rounded=0;whiteSpace=wrap;html=1;fontStyle=1;spacingBottom=0;verticalAlign=top;" vertex="1" parent="1">
                    <mxGeometry x="55" y="750" width="160" height="90" as="geometry"/>
                </mxCell>
                <mxCell id="27" value="&lt;span style=&quot;font-weight: normal;&quot;&gt;&amp;lt;&amp;lt;StepDefinition&amp;gt;&amp;gt;&lt;/span&gt;&lt;br&gt;PickTray" style="rounded=0;whiteSpace=wrap;html=1;fontStyle=1;spacingBottom=0;verticalAlign=top;" vertex="1" parent="1">
                    <mxGeometry x="140" y="900" width="160" height="90" as="geometry"/>
                </mxCell>
                <mxCell id="28" value="&lt;span style=&quot;font-weight: normal;&quot;&gt;&amp;lt;&amp;lt;StepDefinition&amp;gt;&amp;gt;&lt;/span&gt;&lt;br&gt;PlaceTray" style="rounded=0;whiteSpace=wrap;html=1;fontStyle=1;spacingBottom=0;verticalAlign=top;" vertex="1" parent="1">
                    <mxGeometry x="310" y="900" width="160" height="90" as="geometry"/>
                </mxCell>
                <mxCell id="33" value="*" style="text;html=1;align=center;verticalAlign=middle;resizable=0;points=[];autosize=1;strokeColor=none;fillColor=none;fontSize=12;fontFamily=Helvetica;fontColor=default;" vertex="1" parent="1">
                    <mxGeometry x="303" y="725" width="30" height="30" as="geometry"/>
                </mxCell>
                <mxCell id="34" value="1" style="text;html=1;align=center;verticalAlign=middle;resizable=0;points=[];autosize=1;strokeColor=none;fillColor=none;fontSize=12;fontFamily=Helvetica;fontColor=default;" vertex="1" parent="1">
                    <mxGeometry x="225" y="695" width="30" height="30" as="geometry"/>
                </mxCell>
                <mxCell id="35" value="1" style="text;html=1;align=center;verticalAlign=middle;resizable=0;points=[];autosize=1;strokeColor=none;fillColor=none;fontSize=12;fontFamily=Helvetica;fontColor=default;" vertex="1" parent="1">
                    <mxGeometry x="35" y="585" width="30" height="30" as="geometry"/>
                </mxCell>
                <mxCell id="36" value="1" style="text;html=1;align=center;verticalAlign=middle;resizable=0;points=[];autosize=1;strokeColor=none;fillColor=none;fontSize=12;fontFamily=Helvetica;fontColor=default;" vertex="1" parent="1">
                    <mxGeometry x="460" y="580" width="30" height="30" as="geometry"/>
                </mxCell>
                <mxCell id="37" value="*" style="text;html=1;align=center;verticalAlign=middle;resizable=0;points=[];autosize=1;strokeColor=none;fillColor=none;fontSize=12;fontFamily=Helvetica;fontColor=default;" vertex="1" parent="1">
                    <mxGeometry x="218" y="585" width="30" height="30" as="geometry"/>
                </mxCell>
                <mxCell id="38" value="1" style="text;html=1;align=center;verticalAlign=middle;resizable=0;points=[];autosize=1;strokeColor=none;fillColor=none;fontSize=12;fontFamily=Helvetica;fontColor=default;" vertex="1" parent="1">
                    <mxGeometry x="-35" y="725" width="30" height="30" as="geometry"/>
                </mxCell>
                <mxCell id="39" value="*" style="text;html=1;align=center;verticalAlign=middle;resizable=0;points=[];autosize=1;strokeColor=none;fillColor=none;fontSize=12;fontFamily=Helvetica;fontColor=default;" vertex="1" parent="1">
                    <mxGeometry x="135" y="725" width="30" height="30" as="geometry"/>
                </mxCell>
                <mxCell id="40" value="1" style="text;html=1;align=center;verticalAlign=middle;resizable=0;points=[];autosize=1;strokeColor=none;fillColor=none;fontSize=12;fontFamily=Helvetica;fontColor=default;" vertex="1" parent="1">
                    <mxGeometry x="475" y="721" width="30" height="30" as="geometry"/>
                </mxCell>
                <mxCell id="41" value="1" style="text;html=1;align=center;verticalAlign=middle;resizable=0;points=[];autosize=1;strokeColor=none;fillColor=none;fontSize=12;fontFamily=Helvetica;fontColor=default;" vertex="1" parent="1">
                    <mxGeometry x="218" y="875" width="30" height="30" as="geometry"/>
                </mxCell>
                <mxCell id="42" value="1" style="text;html=1;align=center;verticalAlign=middle;resizable=0;points=[];autosize=1;strokeColor=none;fillColor=none;fontSize=12;fontFamily=Helvetica;fontColor=default;" vertex="1" parent="1">
                    <mxGeometry x="395" y="875" width="30" height="30" as="geometry"/>
                </mxCell>
                <mxCell id="43" value="&lt;span style=&quot;font-weight: normal;&quot;&gt;&amp;lt;&amp;lt;Material&amp;gt;&amp;gt;&lt;/span&gt;&lt;br&gt;Fridge" style="rounded=0;whiteSpace=wrap;html=1;fontStyle=1;spacingBottom=0;verticalAlign=top;" vertex="1" parent="1">
                    <mxGeometry x="450" y="275" width="170" height="40" as="geometry"/>
                </mxCell>
                <mxCell id="44" value="&lt;span style=&quot;font-weight: normal;&quot;&gt;&amp;lt;&amp;lt;Asset&amp;gt;&amp;gt;&lt;br&gt;&lt;/span&gt;Bin" style="rounded=0;whiteSpace=wrap;html=1;fontStyle=1;spacingBottom=0;verticalAlign=top;" vertex="1" parent="1">
                    <mxGeometry x="450" y="325" width="170" height="40" as="geometry"/>
                </mxCell>
                <mxCell id="45" value="&lt;span style=&quot;font-weight: normal;&quot;&gt;&amp;lt;&amp;lt;Human&amp;gt;&amp;gt;&lt;/span&gt;&lt;br&gt;FridgeDisassemblyOperator" style="rounded=0;whiteSpace=wrap;html=1;fontStyle=1;spacingBottom=0;verticalAlign=top;" vertex="1" parent="1">
                    <mxGeometry x="450" y="375" width="170" height="40" as="geometry"/>
                </mxCell>
                <mxCell id="46" value="&lt;span style=&quot;font-weight: normal;&quot;&gt;&amp;lt;&amp;lt;Device&amp;gt;&amp;gt;&lt;/span&gt;&lt;br&gt;CollaborativeRobot" style="rounded=0;whiteSpace=wrap;html=1;fontStyle=1;spacingBottom=0;verticalAlign=top;" vertex="1" parent="1">
                    <mxGeometry x="450" y="425" width="170" height="40" as="geometry"/>
                </mxCell>
                <mxCell id="47" value="&lt;span style=&quot;font-weight: normal;&quot;&gt;&amp;lt;&amp;lt;Device&amp;gt;&amp;gt;&lt;/span&gt;&lt;br&gt;FridgeTrayGripper" style="rounded=0;whiteSpace=wrap;html=1;fontStyle=1;spacingBottom=0;verticalAlign=top;" vertex="1" parent="1">
                    <mxGeometry x="450" y="475" width="170" height="40" as="geometry"/>
                </mxCell>
                <mxCell id="48" value="&lt;span style=&quot;font-weight: normal;&quot;&gt;&amp;lt;&amp;lt;Device&amp;gt;&amp;gt;&lt;/span&gt;&lt;br&gt;FridgeRestraint" style="rounded=0;whiteSpace=wrap;html=1;fontStyle=1;spacingBottom=0;verticalAlign=top;" vertex="1" parent="1">
                    <mxGeometry x="450" y="525" width="170" height="40" as="geometry"/>
                </mxCell>
                <mxCell id="55" value="Involves" style="text;html=1;align=center;verticalAlign=middle;resizable=0;points=[];autosize=1;strokeColor=none;fillColor=none;fontSize=12;fontFamily=Helvetica;fontColor=default;labelBackgroundColor=default;" vertex="1" parent="1">
                    <mxGeometry x="303" y="498" width="70" height="30" as="geometry"/>
                </mxCell>
                <mxCell id="56" value="1" style="text;html=1;align=center;verticalAlign=middle;resizable=0;points=[];autosize=1;strokeColor=none;fillColor=none;fontSize=12;fontFamily=Helvetica;fontColor=default;" vertex="1" parent="1">
                    <mxGeometry x="415" y="265" width="30" height="30" as="geometry"/>
                </mxCell>
                <mxCell id="57" value="1..*" style="text;html=1;align=center;verticalAlign=middle;resizable=0;points=[];autosize=1;strokeColor=none;fillColor=none;fontSize=12;fontFamily=Helvetica;fontColor=default;" vertex="1" parent="1">
                    <mxGeometry x="410" y="315" width="40" height="30" as="geometry"/>
                </mxCell>
                <mxCell id="58" value="1" style="text;html=1;align=center;verticalAlign=middle;resizable=0;points=[];autosize=1;strokeColor=none;fillColor=none;fontSize=12;fontFamily=Helvetica;fontColor=default;" vertex="1" parent="1">
                    <mxGeometry x="415" y="365" width="30" height="30" as="geometry"/>
                </mxCell>
                <mxCell id="59" value="1" style="text;html=1;align=center;verticalAlign=middle;resizable=0;points=[];autosize=1;strokeColor=none;fillColor=none;fontSize=12;fontFamily=Helvetica;fontColor=default;" vertex="1" parent="1">
                    <mxGeometry x="415" y="415" width="30" height="30" as="geometry"/>
                </mxCell>
                <mxCell id="60" value="1" style="text;html=1;align=center;verticalAlign=middle;resizable=0;points=[];autosize=1;strokeColor=none;fillColor=none;fontSize=12;fontFamily=Helvetica;fontColor=default;" vertex="1" parent="1">
                    <mxGeometry x="415" y="465" width="30" height="30" as="geometry"/>
                </mxCell>
                <mxCell id="61" value="1" style="text;html=1;align=center;verticalAlign=middle;resizable=0;points=[];autosize=1;strokeColor=none;fillColor=none;fontSize=12;fontFamily=Helvetica;fontColor=default;" vertex="1" parent="1">
                    <mxGeometry x="415" y="515" width="30" height="30" as="geometry"/>
                </mxCell>
            </root>
        </mxGraphModel>
    </diagram>
</mxfile>